<?xml version="1.0" encoding="UTF-8"?>
<svg id="Layer_1" data-name="Layer 1" xmlns="http://www.w3.org/2000/svg" version="1.1" viewBox="0 0 144.4 45">
  <defs>
    <style>
      .cls-1 {
        fill: #def141;
      }

      .cls-1, .cls-2 {
        stroke-width: 0px;
      }

      .cls-2 {
        fill: #fff;
      }
    </style>
  </defs>
  <g id="Layer_1-2" data-name="Layer 1-2">
    <g>
      <g>
        <path class="cls-2" d="M54,7.6h2v12.6h-2V7.6Z"/>
        <path class="cls-2" d="M57.8,11.2h1.9v.2c0,.3,0,.7-.2,1.1s-.3.7-.4,1h.3c0,0,.1-.2.2-.4,0-.2.1-.3.2-.5,0-.2.2-.3.3-.5,0-.1.2-.3.3-.4.4-.3.8-.5,1.2-.6s1-.1,1.6-.1.9,0,1.3.2c.4.1.7.3,1,.6.3.3.5.6.7,1s.3.8.3,1.3v6.2h-1.9v-4.8c0-.9-.2-1.6-.5-2s-.9-.6-1.6-.6-.7,0-1.1.2-.6.3-.9.5c-.3.2-.5.5-.6.8-.2.3-.2.7-.2,1.2v4.8h-1.9v-9h0Z"/>
        <path class="cls-2" d="M73.4,11.2v1.7h-2.3v4.5c0,.4,0,.6.3.8.2.1.5.2.9.2h1.1v1.8h-1.9c-.4,0-.7,0-1-.2s-.5-.4-.7-.6-.3-.5-.4-.9c0-.3-.1-.7-.1-1v-4.5h-1.8v-1.7h1.8v-3.2h1.9v3.2h2.3,0Z"/>
        <path class="cls-2" d="M74.1,15.7c0-.7.1-1.3.4-1.9s.6-1.1,1-1.5c.4-.4,1-.7,1.6-1,.6-.2,1.3-.4,2-.4s1.4.1,2,.4c.6.3,1.1.6,1.5,1,.4.4.7.9,1,1.5.2.6.3,1.1.3,1.8v.8h-7.6c0,.3,0,.5.2.8s.3.6.6.8c.3.2.6.4.9.6s.8.2,1.3.2.6,0,.9-.1c.3,0,.5-.2.7-.3.2-.1.4-.2.5-.4.1-.1.2-.3.3-.4h2.1c0,.2-.2.5-.4.8-.2.3-.5.6-.8.9s-.8.6-1.3.8-1.1.3-1.8.3-1.6-.1-2.3-.4-1.2-.6-1.7-1c-.4-.4-.8-.9-1-1.5-.2-.6-.4-1.2-.4-1.9ZM79,12.5c-.4,0-.8,0-1.1.2s-.6.3-.9.6-.4.5-.6.8c-.1.3-.2.6-.2.9h5.4c0-.3,0-.7-.2-1-.1-.3-.3-.6-.5-.8-.2-.2-.5-.4-.8-.5-.3-.1-.7-.2-1.1-.2h0Z"/>
        <path class="cls-2" d="M84.8,20.2v-9h1.9v.4c0,.3,0,.6-.2,1-.1.3-.2.6-.4.9h.3c.1-.1.2-.5.4-.8.1-.3.3-.6.6-.8.2-.2.4-.4.7-.5.2-.1.5-.2.8-.3s.6-.1,1-.1c.4,0,.8,0,1.2,0v1.8c-.5,0-1.1,0-1.6.2s-1,.3-1.4.5c-.4.3-.7.6-1,1s-.4.9-.4,1.6v4.3h-1.9Z"/>
        <path class="cls-2" d="M92.2,11.2h1.9v.6c0,.3,0,.6-.2.9-.1.3-.2.6-.3.8h.3s0-.2.1-.3,0-.3.1-.4c0-.1.1-.3.2-.4,0-.1.1-.2.2-.3.3-.3.7-.6,1.2-.8.5-.2,1-.3,1.6-.3s1.3.1,1.8.4c.6.2,1,.6,1.4,1s.7.9.9,1.5.3,1.2.3,1.9c0,.6-.1,1.3-.4,1.8-.2.6-.5,1.1-.9,1.5-.4.4-.9.8-1.4,1s-1.1.4-1.8.4-1.1-.1-1.6-.3c-.5-.2-.9-.5-1.2-.8-.2-.2-.3-.5-.4-.8,0-.3-.2-.6-.3-.9h-.3c0,.4.2.7.3,1,.1.3.2.6.2.9v5.2h-1.9v-13.5h0ZM94.3,15.6c0,.4,0,.8.2,1.2s.3.7.6,1c.2.3.5.5.9.7s.8.2,1.2.2.9,0,1.2-.2c.3-.2.6-.4.9-.7.2-.3.4-.6.5-1s.2-.8.2-1.2,0-.8-.2-1.2c-.1-.4-.3-.7-.5-.9s-.5-.5-.9-.6c-.3-.1-.8-.2-1.2-.2s-.9,0-1.2.2-.7.4-.9.6c-.2.3-.4.6-.6.9s-.2.7-.2,1.2Z"/>
        <path class="cls-2" d="M102.8,20.2v-9h1.9v.4c0,.3,0,.6-.2,1-.1.3-.2.6-.4.9h.3c.1-.1.2-.5.4-.8.1-.3.3-.6.6-.8.2-.2.4-.4.7-.5.2-.1.5-.2.8-.3s.6-.1,1-.1c.4,0,.8,0,1.2,0v1.8c-.5,0-1.1,0-1.6.2s-1,.3-1.4.5c-.4.3-.7.6-1,1s-.4.9-.4,1.6v4.3h-1.9Z"/>
        <path class="cls-2" d="M109.5,15.7c0-.7.1-1.3.4-1.9.2-.6.6-1.1,1-1.5.4-.4,1-.7,1.6-1s1.3-.4,2-.4,1.4.1,2,.4c.6.3,1.1.6,1.5,1s.7.9,1,1.5c.2.6.3,1.1.3,1.8v.8h-7.6c0,.3,0,.5.2.8.1.3.3.6.6.8.3.2.6.4.9.6s.8.2,1.3.2.6,0,.9-.1c.3,0,.5-.2.7-.3.2-.1.4-.2.5-.4.1-.1.2-.3.3-.4h2.1c0,.2-.2.5-.4.8-.2.3-.5.6-.8.9s-.8.6-1.3.8-1.1.3-1.8.3-1.6-.1-2.3-.4c-.7-.3-1.2-.6-1.7-1-.4-.4-.8-.9-1-1.5-.2-.6-.4-1.2-.4-1.9h0ZM114.5,12.5c-.4,0-.8,0-1.1.2s-.6.3-.9.6-.4.5-.6.8c-.1.3-.2.6-.2.9h5.4c0-.3,0-.7-.2-1-.1-.3-.3-.6-.5-.8-.2-.2-.5-.4-.8-.5-.3-.1-.7-.2-1.1-.2h0Z"/>
        <path class="cls-2" d="M126,11.2v1.7h-2.3v4.5c0,.4,0,.6.3.8.2.1.5.2.9.2h1.1v1.8h-1.9c-.4,0-.7,0-1-.2s-.5-.4-.7-.6-.3-.5-.4-.9c0-.3-.1-.7-.1-1v-4.5h-1.8v-1.7h1.8v-3.2h1.9v3.2h2.3,0Z"/>
        <path class="cls-2" d="M126.6,15.7c0-.7.1-1.3.4-1.9.2-.6.6-1.1,1-1.5.4-.4,1-.7,1.6-1s1.3-.4,2-.4,1.4.1,2,.4c.6.3,1.1.6,1.5,1s.7.9,1,1.5c.2.6.3,1.1.3,1.8v.8h-7.6c0,.3,0,.5.2.8.1.3.3.6.6.8.3.2.6.4.9.6s.8.2,1.3.2.6,0,.9-.1c.3,0,.5-.2.7-.3.2-.1.4-.2.5-.4.1-.1.2-.3.3-.4h2.1c0,.2-.2.5-.4.8-.2.3-.5.6-.8.9s-.8.6-1.3.8-1.1.3-1.8.3-1.6-.1-2.3-.4c-.7-.3-1.2-.6-1.7-1-.4-.4-.8-.9-1-1.5-.2-.6-.4-1.2-.4-1.9h0ZM131.6,12.5c-.4,0-.8,0-1.1.2s-.6.3-.9.6-.4.5-.6.8c-.1.3-.2.6-.2.9h5.4c0-.3,0-.7-.2-1-.1-.3-.3-.6-.5-.8-.2-.2-.5-.4-.8-.5-.3-.1-.7-.2-1.1-.2h0Z"/>
        <path class="cls-2" d="M137.3,20.2v-9h1.9v.4c0,.3,0,.6-.2,1-.1.3-.2.6-.4.9h.3c.1-.1.2-.5.4-.8.1-.3.3-.6.6-.8.2-.2.4-.4.7-.5.2-.1.5-.2.8-.3s.6-.1,1-.1c.4,0,.8,0,1.2,0v1.8c-.5,0-1.1,0-1.6.2s-1,.3-1.4.5c-.4.3-.7.6-1,1s-.4.9-.4,1.6v4.3h-1.9Z"/>
        <path class="cls-2" d="M56,25.4l2.1,8.7c0,.3,0,.6,0,.9,0,.3,0,.7,0,1h.4c0-.3,0-.6,0-1,0-.3,0-.7.1-.9l2.5-8.7h2.2l2.6,8.7c0,.3.1.6.1.9,0,.3,0,.7,0,1h.4c0-.3,0-.6,0-1,0-.3,0-.7,0-.9l2.1-8.7h2l-3.1,12.6h-2.4l-2.4-9.2c0-.3-.1-.7-.1-1.1s0-.8,0-1.1h-.4c0,.3,0,.7,0,1.1,0,.4,0,.8-.1,1.1l-2.4,9.2h-2.4l-3.1-12.6h2,0Z"/>
        <path class="cls-2" d="M71,25.4h2.1v2h-2.1v-2ZM71.2,29h1.9v9h-1.9v-9Z"/>
        <path class="cls-2" d="M74.3,38v-1.7l4.9-5.1c.1-.1.3-.2.5-.3.2,0,.4-.1.6-.2v-.3c-.3,0-.5.2-.7.3-.2.1-.4.2-.6.2h-4.6v-1.8h7.9v1.8l-4.8,5c-.1.1-.3.2-.5.3-.2,0-.4.2-.6.2v.3c.3,0,.5-.2.7-.3s.4-.1.6-.1h4.8v1.8h-8.2,0Z"/>
        <path class="cls-2" d="M83.1,33.4c0-.7.1-1.3.3-1.9.2-.6.5-1.1.9-1.5.4-.4.9-.7,1.4-1s1.2-.4,1.8-.4,1.2,0,1.6.3c.5.2.9.5,1.2.8.2.2.3.5.4.8,0,.3.2.6.2.9h.3c0-.4-.2-.6-.3-.9s-.2-.6-.2-.9v-.7s1.9,0,1.9,0v9h-1.9v-.7c0-.3,0-.6.2-.9.1-.3.2-.6.3-.8h-.3c0,.2-.2.4-.2.8,0,.3-.2.6-.4.8-.3.4-.7.7-1.2.9-.5.2-1,.3-1.6.3s-1.3-.1-1.8-.4c-.6-.3-1-.6-1.4-1-.4-.4-.7-.9-.9-1.5-.2-.6-.3-1.2-.3-1.9h0ZM87.7,30.5c-.4,0-.8,0-1.2.2-.3.1-.6.4-.9.6-.2.3-.4.6-.5.9-.1.4-.2.7-.2,1.2s0,.8.2,1.2.3.7.6,1,.5.5.9.7.7.2,1.2.2.8,0,1.1-.3c.3-.2.6-.4.9-.7.2-.3.4-.6.6-1s.2-.8.2-1.1c0-.9-.2-1.6-.7-2.1-.5-.5-1.2-.8-2.1-.8h0Z"/>
        <path class="cls-2" d="M94.4,38v-9h1.9v.4c0,.3,0,.6-.2,1-.1.3-.2.6-.4.9h.3c.1-.1.2-.5.4-.8.1-.3.3-.6.6-.8.2-.2.4-.4.7-.5.2-.1.5-.2.8-.3s.6-.1,1-.1c.4,0,.8,0,1.2,0v1.8c-.5,0-1.1,0-1.6.2s-1,.3-1.4.5c-.4.3-.7.6-1,1s-.4.9-.4,1.6v4.3h-1.9Z"/>
        <path class="cls-2" d="M105.4,38.3c-.7,0-1.3-.1-1.8-.4-.6-.2-1-.6-1.4-1-.4-.4-.7-.9-.9-1.5-.2-.6-.3-1.2-.3-1.9,0-.7.1-1.3.4-1.9.2-.6.5-1.1.9-1.5.4-.4.9-.8,1.4-1,.5-.3,1.1-.4,1.8-.4s1.1.1,1.6.3c.5.2.9.5,1.2.8.2.2.3.5.4.8s.2.6.3.9h.3c0-.4-.2-.7-.3-1-.1-.3-.2-.6-.2-.9v-4.7h1.9v13h-1.9v-.6c0-.3,0-.6.2-.9.1-.3.2-.6.3-.8h-.3c0,.1-.2.4-.3.7,0,.3-.2.6-.4.8-.3.3-.7.6-1.2.8s-1,.3-1.6.3h0ZM102.9,33.5c0,.4,0,.8.2,1.2.1.4.3.7.5.9.2.3.5.5.9.6.3.1.8.2,1.2.2s.9,0,1.2-.2c.4-.1.7-.4.9-.6.2-.3.4-.6.5-.9.1-.4.2-.7.2-1.2s0-.8-.2-1.2-.3-.7-.5-1c-.2-.3-.5-.5-.9-.7-.4-.2-.8-.2-1.2-.2s-.9,0-1.2.2c-.3.2-.6.4-.9.7-.2.3-.4.6-.5,1-.1.4-.2.8-.2,1.2Z"/>
        <path class="cls-2" d="M113.6,35c0,.2,0,.4.2.6,0,.2.2.4.4.5.2.2.4.3.7.4.3.1.6.2,1,.2.7,0,1.2-.1,1.6-.3s.6-.5.6-.9-.2-.6-.5-.8c-.3-.2-.7-.3-1.2-.5s-1-.2-1.5-.3c-.6-.1-1.1-.2-1.5-.4-.5-.2-.9-.4-1.2-.8-.3-.3-.5-.7-.5-1.3s0-.6.3-.9c.2-.3.4-.6.8-.8.3-.2.8-.4,1.3-.6.5-.1,1.1-.2,1.8-.2s1.2,0,1.7.2c.5.2.9.4,1.3.6.3.3.6.6.8.9.2.3.3.7.3,1.1h-1.9c0-.4-.2-.7-.6-.9-.4-.2-.9-.3-1.5-.3s-1.2,0-1.6.3c-.4.2-.6.4-.6.7s.2.4.5.5.7.2,1.2.3c.5,0,1,.2,1.5.3.6.1,1.1.3,1.5.5.5.2.9.5,1.2.9.3.4.5.8.5,1.4s0,.8-.3,1.2c-.2.4-.5.7-.9.9s-.8.5-1.3.6-1.1.2-1.7.2-1.4,0-2-.3c-.5-.2-1-.5-1.3-.8-.3-.3-.6-.7-.8-1.1s-.2-.8-.2-1.2h2Z"/>
      </g>
      <path class="cls-1" d="M39.8,21.7c-1.6,0-3.1,0-4.4-.4l-1.9-.5c-3.8-1.7-8-5-10.1-11.6h0c-.3-1.3-.5-2.8-.5-4.4,0-1.6,0-3.1,0-4.5h-1.5c0,1.4,0,2.9,0,4.5,0,1.5,0,2.8-.4,4.1-2.1,6.8-6.3,10.2-10.2,11.9l-2.1.6c-1.3.3-2.7.5-4.3.5-1.6,0-3.1,0-4.5,0v1.5c1.4,0,2.9,0,4.5,0,1.6,0,3.1,0,4.4.4l1.8.5c3.8,1.6,8.1,4.9,10.3,11.4v.5c.5,1.3.6,2.7.6,4.3,0,1.6,0,3.1,0,4.5h1.5c0-1.4,0-2.9,0-4.5,0-1.6,0-3.1.4-4.4l.2-.9c2.3-6.3,6.5-9.4,10.2-11l1.7-.4c1.3-.3,2.7-.5,4.3-.5,1.6,0,3.1,0,4.5,0v-1.5c-1.4,0-2.9,0-4.5,0h0Z"/>
    </g>
  </g>
</svg>